<svg width="24" height="24" viewBox="0 0 24 24" fill="none" xmlns="http://www.w3.org/2000/svg">
<g clip-path="url(#clip0_3284_1760)">
<path fill-rule="evenodd" clip-rule="evenodd" d="M20.997 6.54623C20.9897 6.44858 20.908 6.37305 20.8102 6.37305H17.4364H15.9369H8.06472H6.56525H3.19146C3.09362 6.37305 3.0119 6.44858 3.00459 6.54623L1.69255 23.7901C1.68862 23.842 1.70642 23.8934 1.74204 23.9316C1.77746 23.97 1.82732 23.9918 1.87942 23.9918H11.1617L12.2017 24.0003C12.2042 23.9975 12.2067 23.9946 12.2092 23.9918H22.1222C22.1743 23.9918 22.2242 23.97 22.2596 23.9318C22.295 23.8935 22.313 23.8422 22.3091 23.7903L20.997 6.54623ZM12.2092 23.9918C12.4792 23.6816 12.7412 23.3716 12.9838 23.0784C13.9504 21.9142 18.0282 15.3372 18.0282 15.3372C18.0282 15.3372 17.5072 15.9064 13.9669 20.3628C12.687 21.974 11.6658 23.1425 10.8686 23.9893L11.1617 23.9918H12.2092ZM7.33843 11.4255C8.26594 11.4255 9.01783 10.6736 9.01783 9.74609C9.01783 8.81858 8.26594 8.06669 7.33843 8.06669C6.41092 8.06669 5.65903 8.81858 5.65903 9.74609C5.65903 10.6736 6.41092 11.4255 7.33843 11.4255ZM18.4112 9.74609C18.4112 10.6736 17.6593 11.4255 16.7318 11.4255C15.8043 11.4255 15.0524 10.6736 15.0524 9.74609C15.0524 8.81858 15.8043 8.06669 16.7318 8.06669C17.6593 8.06669 18.4112 8.81858 18.4112 9.74609ZM5.71538 20.1087C5.1584 20.9792 4.79867 22.4049 4.5782 23.9893H6.38693C6.58652 22.525 6.91258 21.2032 7.43127 20.3992C9.06977 17.8598 11.4533 17.1086 12.4739 16.7869C12.5519 16.7623 12.622 16.7403 12.6832 16.7201C13.5442 16.436 18.0816 15.171 18.0816 15.171C18.0816 15.171 18.6966 19.2618 18.063 22.6376C17.9779 23.0985 17.8785 23.5491 17.7648 23.9893H18.345C18.4645 23.5187 18.569 23.0417 18.6595 22.5539C19.3534 18.8652 18.6792 14.3928 18.6792 14.3928C18.6792 14.3928 12.3992 15.7746 11.4581 16.0855C11.3909 16.1077 11.3138 16.132 11.2279 16.1591C10.1115 16.5111 7.50724 17.3325 5.71538 20.1087Z" fill="white"/>
<path d="M15.9539 9.76132L15.9364 5.46209C15.9364 3.30672 14.1891 1.55944 12.0338 1.55944C9.87838 1.55944 8.1311 3.30672 8.1311 5.46209L8.10317 9.76265C8.10042 10.1854 7.75563 10.5259 7.33289 10.5234C6.91174 10.5209 6.57166 10.1788 6.57166 9.75768V5.46209C6.57166 2.44546 9.01712 0 12.0338 0C15.0504 0 17.4958 2.44546 17.4958 5.46209L17.4958 9.75819C17.4958 10.18 17.1569 10.5235 16.7352 10.5291C16.3066 10.5349 15.9556 10.1899 15.9539 9.76132Z" fill="url(#paint0_linear_3284_1760)"/>
</g>
<defs>
<linearGradient id="paint0_linear_3284_1760" x1="12.0338" y1="0" x2="12.0338" y2="10.5292" gradientUnits="userSpaceOnUse">
<stop stop-color="#B1FF5F"/>
<stop offset="0.317708" stop-color="#83C94C"/>
<stop offset="1" stop-color="#88CD4E"/>
</linearGradient>
<clipPath id="clip0_3284_1760">
<rect width="24" height="24" fill="white"/>
</clipPath>
</defs>
</svg>
